<svg version="1.2" xmlns="http://www.w3.org/2000/svg" viewBox="0 0 205 205" width="205" height="205">
	<title>logo-svg</title>
	<style>
		.s0 { fill: #719aa1 } 
		.s1 { fill: #263952 } 
		.s2 { fill: #ffffff;stroke: #263952;stroke-width: 6 } 
		.s3 { fill: #7398d0 } 
		.s4 { fill: #7398d0;stroke: #ffffff;stroke-linecap: round;stroke-linejoin: round;stroke-width: 3.9 } 
	</style>
	<path id="Layer" class="s0" d="m101.8 0l88.7 51.2v102.5l-88.7 51.3-88.8-51.3v-102.5z"/>
	<path id="Layer" fill-rule="evenodd" class="s1" d="m190.6 51.2v102.6l-88.8 51.2-88.8-51.3v-102.5l88.8-51.2zm-162.4-1.7c0.1 1.1 0.1 2.3 0 3.4l64.4 37.2c5.5-4 12.9-4 18.3 0l64.3-37.2c-0.1-1.1-0.1-2.3 0-3.4l-64.3-37.2c-5.5 4-12.9 4-18.3 0zm88.7 51.3c0.8 6.7-2.9 13.1-9.1 15.8l0.1 73.9c1.1 0.4 2.1 1 3 1.7l64.4-37.2c-0.8-6.7 2.9-13.1 9.1-15.8v-74.3c-1.1-0.4-2.1-1-3-1.7zm-97.8-35.5v74.3c6.2 2.7 9.9 9.1 9.1 15.8l64.4 37.2c1-0.7 1.9-1.2 3-1.7v-74.3c-6.2-2.7-9.9-9.1-9.1-15.8l-64.4-37.2c-0.9 0.7-1.9 1.3-3 1.7z"/>
	<path id="Layer" class="s2" d="m103.2 154.2c-29.2 0-52.8-23.6-52.8-52.8 0-29.2 23.6-52.8 52.8-52.8 29.2 0 52.8 23.6 52.8 52.8 0 29.2-23.6 52.8-52.8 52.8z"/>
	<g id="Layer">
		<path id="Layer" class="s3" d="m79.1 119.1c0-17.7 8.4-30.7 21.1-38.5 0.6-0.3 1.4-0.2 1.8 0.4l2.8 3.6c0.5-2.5 2.7-7.7 2.7-7.7 6.5-2.5 13.6-3.5 20.5-2.8 1.1 0.2 2.1 1.1 2.2 2.3 1.2 13.3-3.7 26.8-13.3 36.2 0 0-9 1.8-13.5 1.8l4.8 2.4c0.9 0.5 1 1.8 0.1 2.3-6.6 3.9-14.3 6.1-22.5 6.1"/>
		<path id="Layer" class="s4" d="m68.6 132.9c6.7-18.2 28.3-34 45.8-42.8"/>
	</g>
</svg>